<?xml version="1.0" standalone="no"?>
<!DOCTYPE svg PUBLIC "-//W3C//DTD SVG 20010904//EN"
 "http://www.w3.org/TR/2001/REC-SVG-20010904/DTD/svg10.dtd">
<svg version="1.0" xmlns="http://www.w3.org/2000/svg"
 width="420.000000pt" height="420.000000pt" viewBox="0 0 420.000000 420.000000"
 preserveAspectRatio="xMidYMid meet">
<metadata>
Created by potrace 1.11, written by Peter Selinger 2001-2013
</metadata>
<g transform="translate(0.000000,420.000000) scale(0.100000,-0.100000)"
fill="#000000" stroke="none">
<path d="M112 3530 l-83 -5 77 -125 c42 -69 120 -195 173 -280 53 -85 101
-163 106 -172 6 -10 39 -65 75 -124 36 -58 72 -118 81 -132 9 -15 112 -182
229 -372 116 -190 217 -354 222 -365 8 -13 11 -190 11 -532 l0 -513 314 0 313
0 0 516 0 515 64 102 c105 169 220 356 237 385 61 103 314 508 320 512 5 3
118 6 251 5 l243 0 2 -860 c2 -473 3 -931 3 -1017 l0 -158 314 0 313 0 1 988
c0 543 1 1001 1 1018 l1 30 221 0 c136 -1 227 3 234 9 9 7 205 343 332 568 2
4 -499 7 -1115 7 l-1118 0 -17 -32 c-9 -18 -27 -51 -40 -73 -139 -234 -437
-744 -465 -795 -62 -112 -67 -120 -76 -117 -10 3 -533 921 -562 985 -8 17 -22
33 -32 33 -54 4 -560 3 -630 -1z"/>
</g>
</svg>
