<?xml version="1.0" standalone="no"?>
<!DOCTYPE svg PUBLIC "-//W3C//DTD SVG 20010904//EN"
 "http://www.w3.org/TR/2001/REC-SVG-20010904/DTD/svg10.dtd">
<svg version="1.0" xmlns="http://www.w3.org/2000/svg"
 width="304.000000pt" height="304.000000pt" viewBox="0 0 304.000000 304.000000"
 preserveAspectRatio="xMidYMid meet">
<metadata>
Created by potrace 1.11, written by Peter Selinger 2001-2013
</metadata>
<g transform="translate(0.000000,304.000000) scale(0.100000,-0.100000)"
fill="#000000" stroke="none">
<path d="M478 2478 c38 -70 72 -132 115 -208 11 -19 76 -136 145 -259 l125
-224 0 -249 1 -248 136 0 137 0 0 249 1 248 120 214 c65 118 128 230 139 249
11 19 35 62 53 95 18 33 50 91 71 128 22 38 39 71 39 73 0 2 -65 4 -144 4
l-145 0 -79 -147 c-44 -82 -101 -190 -127 -241 -27 -51 -51 -94 -54 -96 -3 -2
-62 106 -131 240 l-125 244 -158 0 -158 0 39 -72z"/>
<path d="M1684 2531 c-82 -50 -84 -191 -2 -241 71 -43 174 -15 204 55 29 70 8
150 -48 185 -42 26 -113 26 -154 1z"/>
<path d="M2140 2532 c-92 -45 -92 -198 0 -245 44 -23 132 -17 162 10 27 23 48
74 48 113 0 109 -109 173 -210 122z"/>
<path d="M1610 1730 l0 -460 138 0 138 0 0 460 0 460 -138 0 -138 0 0 -460z"/>
<path d="M2060 1730 l0 -460 138 0 137 0 0 460 1 460 -138 0 -138 0 0 -460z"/>
<path d="M640 970 l0 -50 70 0 70 0 0 -180 0 -180 55 0 55 0 0 180 0 180 70 0
70 0 -1 50 -2 50 -193 0 -194 0 0 -50z"/>
<path d="M1089 1013 c-1 -5 -2 -108 -3 -230 l-1 -223 168 0 167 0 0 50 0 50
-113 0 -113 0 1 43 1 42 82 3 82 3 0 44 0 44 -82 3 -83 3 0 35 0 35 112 3 112
3 -1 49 0 50 -164 0 c-90 0 -165 -3 -165 -7z"/>
<path d="M1608 1010 c-136 -42 -198 -195 -133 -327 43 -85 115 -124 222 -119
53 2 78 9 110 29 36 23 93 84 93 99 0 5 -37 18 -50 17 -3 0 -17 4 -32 10 -20
8 -28 7 -32 -5 -8 -21 -67 -54 -99 -54 -100 0 -155 94 -113 195 31 74 150 87
205 21 9 -11 19 -13 37 -6 14 6 36 12 50 14 15 3 28 7 30 9 10 10 -79 95 -113
108 -43 17 -135 22 -175 9z"/>
<path d="M1945 793 l0 -228 56 -3 56 -3 -2 73 c-2 113 -6 108 91 108 l84 0 0
-90 0 -90 55 0 55 0 0 230 0 230 -55 0 -55 0 0 -90 0 -91 -87 3 -87 3 -1 85 0
85 -55 3 -55 3 0 -228z"/>
</g>
</svg>
